Coordinates
version=1
nRows=20
nColumns=34
inDegrees=yes

Units are S.I. units (second, meters, Newtons, ...)
If the header above contains a line with 'inDegrees', this indicates whether rotational values are in degrees (yes) or radians (no).

endheader
time	pelvis_tilt	pelvis_list	pelvis_rotation	pelvis_tx	pelvis_ty	pelvis_tz	hip_flexion_r	hip_adduction_r	hip_rotation_r	knee_angle_r	ankle_angle_r	subtalar_angle_r	mtp_angle_r	hip_flexion_l	hip_adduction_l	hip_rotation_l	knee_angle_l	ankle_angle_l	subtalar_angle_l	mtp_angle_l	lumbar_extension	lumbar_bending	lumbar_rotation	arm_flex_r	arm_add_r	arm_rot_r	elbow_flex_r	pro_sup_r	arm_flex_l	arm_add_l	arm_rot_l	elbow_flex_l	pro_sup_l
      4.25000000	     -9.07644688	      0.23597254	      7.34860179	      1.90738453	      0.99818499	     -0.10445562	      1.53318811	     -1.99839823	     -8.72720953	      4.42707973	     -9.71619572	     -6.29839433	      0.00000000	      3.31933652	     -4.93399064	     -3.21555012	      1.23826607	    -10.09422514	      3.26615397	      0.00000000	      1.41148857	     -8.45751905	      8.64838936	    159.76048964	     -4.01202743	     64.41963301	     23.43153279	     64.57784116	    129.33415517	      9.34825289	     29.55782751	     80.66302236	     91.02115397
      4.26666670	     -9.43997947	      0.10100865	      7.06632575	      1.91099824	      1.00237142	     -0.10522561	      2.09044907	     -1.90449447	     -8.57726944	      4.51628332	     -8.22874543	     -8.17655490	      0.00000000	      3.67129268	     -4.99295219	     -2.64665103	      1.25210119	     -9.42043123	      2.76575332	      0.00000000	      1.83593141	     -8.24174894	      8.03723170	    159.59368163	     -4.29613980	     65.34613372	     24.41068121	     66.43486830	    126.74555760	     10.96467957	     27.46105017	     80.01317899	     91.79708011
      4.28333330	     -8.86543664	      0.09954231	      6.54903454	      1.91056662	      1.00107221	     -0.10815174	      0.94562506	     -1.46758352	     -7.83611945	      4.18108926	     -8.27563359	     -6.36801714	      0.00000000	      2.86673049	     -5.26191213	     -3.17430942	      1.70978185	     -8.73724159	      2.30498085	      0.00000000	      1.19459183	     -8.72339277	      7.48254560	    159.07974293	     -5.45123348	     65.94073310	     26.47844550	     67.50057013	    125.60969426	     10.82148266	     28.50708993	     83.09777305	     92.33589376
      4.30000000	     -8.81677451	      0.15363067	      6.32190739	      1.91309241	      1.00162298	     -0.10909921	      1.03500552	     -1.72937214	     -8.04997579	      4.36944487	     -6.37441729	     -7.67828451	      0.00000000	      2.72375348	     -5.06850664	     -2.63724181	      1.57668878	     -8.03358605	      2.22874004	      0.00000000	      0.85786640	     -8.31080961	      6.34487052	    158.51517650	     -5.14374714	     66.05076279	     26.98747210	     67.73088695	    124.01451308	     11.66712048	     27.95777221	     82.69432070	     92.37987391
      4.31666670	     -8.54922098	      0.18115458	      5.71820629	      1.90950390	      0.99558533	     -0.11111530	      0.29518032	     -1.55843005	     -7.23838830	      3.97857911	     -7.08025339	     -6.38350583	      0.00000000	      2.20836723	     -5.09706297	     -2.98897580	      1.73586657	     -7.34342543	      1.57964629	      0.00000000	      0.82763593	     -8.56920485	      6.30755738	    157.02031768	     -6.12919256	     65.82000475	     28.65438911	     68.41733035	    121.32414164	     12.84274390	     26.92841913	     84.76255100	     92.63793366
      4.33333330	     -8.95555740	      0.34520564	      5.39945600	      1.91269751	      0.99935282	     -0.11416084	      0.84045052	     -2.19374724	     -7.58492269	      3.85169840	     -6.05594048	     -8.11120332	      0.00000000	      2.61147820	     -4.55754635	     -2.73270509	      1.67601514	     -7.09022806	      1.25986928	      0.00000000	      1.18810287	     -8.16314615	      5.63702851	    155.31285544	     -5.96389105	     65.02390968	     30.23434826	     69.24078207	    118.01561978	     13.21964112	     25.52539059	     85.60775894	     93.03133018
      4.35000000	     -8.43434346	      0.49467736	      4.82078425	      1.91173146	      0.99680730	     -0.11288391	     -0.28512334	     -2.14746755	     -7.17445603	      3.22684783	     -6.81753480	     -7.02838446	      0.00000000	      1.72500658	     -4.51194008	     -3.21747891	      1.85428432	     -6.62825195	      1.02216729	      0.00000000	      0.78439324	     -8.49663380	      5.81871418	    153.11277979	     -6.91825503	     64.25663124	     32.83776938	     70.08292863	    115.20603834	     11.62821773	     27.12958942	     90.37524566	     93.55289857
      4.36666670	     -8.84135848	      0.61992947	      4.60682275	      1.91253421	      0.99926219	     -0.10930770	      0.25674017	     -2.50147268	     -7.14670450	      2.85064484	     -5.79822884	     -8.53897705	      0.00000000	      2.26447834	     -4.20318377	     -2.62164250	      1.95495722	     -6.13714515	      0.73118807	      0.00000000	      1.30500654	     -8.18021364	      5.39227778	    149.92732011	     -6.97276984	     61.33326787	     35.47476429	     71.52147225	    110.93118873	      9.91885692	     27.11962611	     92.86652076	     94.12901888
      4.38333330	     -8.36575368	      0.76383802	      4.30139656	      1.91098982	      0.99534835	     -0.10951049	     -0.78322260	     -2.31915038	     -6.55953448	      2.23522738	     -7.10389180	     -7.22161114	      0.00000000	      1.54387379	     -4.28736038	     -2.93962460	      2.12305322	     -6.07303762	      0.56763928	      0.00000000	      1.11345025	     -8.42974049	      5.99426978	    147.20489145	     -8.11429897	     61.11427663	     38.38723108	     72.61852193	    106.98578762	      7.20832704	     29.23599023	     97.75495010	     94.45563079
      4.40000000	     -8.54425259	      0.97917716	      4.00078159	      1.91271129	      1.00296470	     -0.11063666	     -0.48417623	     -2.78812495	     -7.11462219	      1.90890352	     -6.38500673	     -7.99131861	      0.00000000	      1.66440088	     -3.96203496	     -2.43716231	      1.79695778	     -6.35225475	      0.54020301	      0.00000000	      1.45412470	     -8.20551182	      5.56604698	    142.44199341	     -8.65401739	     56.85223125	     43.12920084	     75.48425421	    101.99683502	      5.62829712	     29.52282593	     99.74767723	     94.70768058
      4.41666670	     -8.13836752	      1.04409841	      3.68032067	      1.91277284	      0.99999522	     -0.11153213	     -1.42696426	     -2.56386285	     -6.64633265	      1.34946602	     -7.53475693	     -6.49120492	      0.00000000	      1.06452300	     -4.07743834	     -2.72968556	      1.92391474	     -6.32866106	      0.62191623	      0.00000000	      1.19950282	     -7.95520103	      5.83173820	    139.33555157	     -9.30115099	     57.89436085	     46.67799336	     76.50237253	     96.85775677	      2.29889701	     31.40608103	    105.29252412	     94.85333156
      4.43333330	     -8.22812424	      1.21286083	      3.48445101	      1.91276879	      1.00447846	     -0.11105811	     -1.14016278	     -3.03886616	     -6.83232081	      1.18897704	     -6.70594758	     -7.30748374	      0.00000000	      1.23688892	     -3.71636843	     -2.12019312	      1.81297998	     -6.52300106	      0.41484120	      0.00000000	      1.23178047	     -7.45537466	      4.91034985	    133.77258865	     -8.93707186	     54.74078829	     50.53720694	     78.79054424	     91.12396583	      0.85339159	     30.55228074	    107.18971042	     94.71690081
      4.45000000	     -7.92463651	      1.29233855	      3.34226274	      1.91127953	      1.00410309	     -0.11073353	     -1.89180844	     -2.87759656	     -6.43122124	      0.67218133	     -7.93972839	     -5.99196690	      0.00000000	      0.83430618	     -3.79866101	     -2.22594453	      1.98814845	     -6.62180425	      0.45418369	      0.00000000	      0.78847723	     -7.21933535	      5.08016433	    130.02261689	     -9.68612061	     55.56769920	     54.32525620	     79.80823438	     84.91819130	     -1.90391748	     31.68458618	    111.84681632	     94.78387289
      4.46666670	     -8.08481149	      1.45080985	      3.22812031	      1.91357586	      1.00162304	     -0.11108189	     -1.47699438	     -3.35674898	     -6.67917905	      0.59184357	     -7.11691843	     -7.10037920	      0.00000000	      1.19060202	     -3.45994479	     -1.61773815	      2.20037712	     -6.59777639	      0.41774774	      0.00000000	      0.68229543	     -6.85605294	      4.81542585	    125.04243968	     -9.24646779	     52.23128801	     56.81991917	     81.18889701	     79.39661984	     -2.02614533	     29.97698977	    112.68019159	     94.60292971
      4.48333330	     -7.80764276	      1.45395086	      3.08192155	      1.91437585	      0.99920793	     -0.10895833	     -2.04659918	     -3.10218437	     -6.03451383	      0.46646789	     -8.44352592	     -6.24114904	      0.00000000	      0.70306498	     -3.73630702	     -1.61702120	      2.35058255	     -6.83948844	      0.16426645	      0.00000000	      0.10324046	     -6.65933426	      5.05052987	    120.90029251	     -9.65354582	     51.71471281	     60.00590637	     82.30878728	     73.06947348	     -5.12711755	     30.41956109	    115.86009618	     94.63982097
      4.50000000	     -8.02235065	      1.60186451	      3.04094070	      1.91475681	      0.99559173	     -0.10919402	     -1.51623061	     -3.54783091	     -6.14033603	      0.66365984	     -7.47588028	     -7.65202565	      0.00000000	      1.08314715	     -3.49598433	     -0.86659334	      2.59201448	     -6.75609189	     -0.19715666	      0.00000000	      0.09399976	     -6.31412455	      4.31026022	    114.91947449	     -9.36471910	     49.97140676	     62.75357451	     83.46820639	     67.57269195	     -5.24333708	     28.03291714	    115.01449127	     94.37299618
      4.51666670	     -7.93157932	      1.62708035	      2.98595850	      1.91584533	      0.99040482	     -0.10496349	     -1.96169405	     -3.24105120	     -5.20931481	      0.55739693	     -8.52132296	     -7.20987426	      0.00000000	      0.91507329	     -3.79448801	     -0.88270957	      2.93188911	     -6.99407429	     -0.70597948	      0.00000000	     -0.11223385	     -6.24474872	      4.38189695	    109.76167353	     -9.94617928	     49.72811474	     65.89938004	     84.65993762	     60.57287357	     -7.74306141	     27.56721626	    115.83247320	     94.24403876
      4.53333330	     -8.15035023	      1.84567767	      3.03229046	      1.91969763	      0.99509801	     -0.10410769	     -1.58221175	     -3.70539533	     -5.25833316	      0.75715375	     -7.52100861	     -8.78514715	      0.00000000	      1.25155474	     -3.57298636	     -0.26098588	      3.09156283	     -7.25277436	     -0.75189726	      0.00000000	      0.18258269	     -6.00850919	      2.85189007	    100.67229565	     -9.84652648	     47.03183855	     70.05974678	     86.88921659	     53.65611586	     -8.24856254	     24.89042965	    113.45186086	     93.66087773
      4.55000000	     -8.19451583	      1.79138346	      3.10564666	      1.91982695	      0.98883017	     -0.10801464	     -2.03086379	     -3.38678483	     -4.48493875	      0.66414117	     -8.81069807	     -8.15564688	      0.00000000	      1.27230954	     -3.88527430	     -0.20755843	      3.39854104	     -7.38397489	     -1.07470117	      0.00000000	      0.06665012	     -5.58468936	      2.29086185	     94.04740523	    -11.33282617	     48.26924591	     73.25620007	     87.68709073	     44.72634425	    -10.17920877	     22.78026411	    111.85686355	     93.28639799
      4.56666670	     -8.61608412	      2.05847530	      3.08962845	      1.92260394	      0.99230383	     -0.11140236	     -1.36193846	     -4.13232011	     -4.42879355	      1.03669587	     -7.80572376	     -9.75681890	      0.00000000	      1.88709343	     -3.31983625	      0.34701936	      3.67652954	     -7.46996482	     -1.49625065	      0.00000000	      0.25311002	     -5.49358069	      1.52370821	     86.04015365	    -13.48028666	     48.49899081	     76.63289552	     89.21939746	     37.71979822	     -8.43915488	     20.23376034	    107.72464557	     91.89314803
